<svg xmlns="http://www.w3.org/2000/svg" viewBox="0 0 8372.94 1954.71"><defs><style>.cls-1{opacity:0.47;}.cls-2{font-size:1004.92px;font-family:Roboto-Regular, Roboto;}.cls-2,.cls-5{fill:#231f20;}.cls-3,.cls-4,.cls-5{font-family:Roboto-Thin, Roboto;font-weight:200;}.cls-4{letter-spacing:-0.01em;}.cls-5{font-size:296.6px;}.cls-6{letter-spacing:-0.13em;}.cls-7{letter-spacing:-0.02em;}.cls-8{letter-spacing:-0.01em;}.cls-9{letter-spacing:0.01em;}.cls-10{letter-spacing:0em;}.cls-11{letter-spacing:0.01em;}.cls-12{letter-spacing:0em;}.cls-13{fill:#f1f2f2;}.cls-14{fill:#8c8c8c;}.cls-15{opacity:0.55;}.cls-16{opacity:0.59;}.cls-17,.cls-18{fill:none;stroke-miterlimit:10;stroke-width:15px;}.cls-17{stroke:#231f20;}.cls-18{stroke:#9370b1;}</style></defs><title>BrandDesign</title><g id="artboard-8"><text class="cls-2" transform="translate(2196.82 1156.58)">medical<tspan class="cls-3" x="3540.3" y="0">bl</tspan><tspan class="cls-4" x="4297.42" y="0">v</tspan><tspan class="cls-3" x="4770.94" y="0">d</tspan></text><text class="cls-5" transform="translate(2424.71 1588.53)">HEA<tspan class="cls-6" x="554.23" y="0">L</tspan><tspan x="667.49" y="0">THCARE</tspan><tspan class="cls-7" x="1785.22" y="0"> </tspan><tspan class="cls-8" x="1850.39" y="0">T</tspan><tspan x="2023.6" y="0">OURISM </tspan><tspan class="cls-9" x="3190.87" y="0">M</tspan><tspan class="cls-10" x="3447.79" y="0">ARK</tspan><tspan class="cls-11" x="4007.23" y="0">E</tspan><tspan class="cls-12" x="4178.99" y="0">TING</tspan></text><rect class="cls-13" x="1255.97" y="85.1" width="233.68" height="227.17"/><path class="cls-14" d="M1489.4,85.35V312H1256.22V85.35H1489.4m.5-.5H1255.72V312.52H1489.9V84.85Z"/><rect class="cls-13" x="1255.97" y="312.94" width="233.68" height="227.17"/><path class="cls-14" d="M1489.4,313.19V539.86H1256.22V313.19H1489.4m.5-.5H1255.72V540.36H1489.9V312.69Z"/><rect class="cls-13" x="785.99" y="84.7" width="469.48" height="456.42"/><path class="cls-14" d="M1255.22,85V540.87h-469V85h469m.5-.5h-470V541.37h470V84.45Z"/><rect class="cls-13" x="1256.54" y="1245.7" width="233.68" height="227.17"/><path class="cls-14" d="M1490,1245.94v226.68H1256.79V1245.94H1490m.5-.5H1256.29v227.68h234.18V1245.44Z"/><rect class="cls-13" x="1256.54" y="1473.37" width="233.68" height="227.17"/><path class="cls-14" d="M1490,1473.62v226.67H1256.79V1473.62H1490m.5-.5H1256.29v227.67h234.18V1473.12Z"/><rect class="cls-13" x="786.56" y="1245.7" width="469.48" height="456.42"/><path class="cls-14" d="M1255.79,1245.94v455.93h-469V1245.94h469m.5-.5h-470v456.93h470V1245.44Z"/><rect class="cls-13" x="558.79" y="1011.6" width="227.17" height="233.68"/><path class="cls-14" d="M785.71,1011.85V1245H559V1011.85H785.71m.5-.5H558.54v234.18H786.21V1011.35Z"/><rect class="cls-13" x="331.11" y="1011.6" width="227.17" height="233.68"/><path class="cls-14" d="M558,1011.85V1245H331.36V1011.85H558m.5-.5H330.86v234.18H558.54V1011.35Z"/><rect class="cls-13" x="329.53" y="541.62" width="456.42" height="469.48"/><path class="cls-14" d="M785.71,541.87v469H329.78v-469H785.71m.5-.5H329.28v470H786.21v-470Z"/><rect class="cls-13" x="1718.61" y="1009.92" width="227.17" height="233.68"/><path class="cls-14" d="M1945.53,1010.17v233.18H1718.86V1010.17h226.67m.5-.5H1718.36v234.18H1946V1009.67Z"/><rect class="cls-13" x="1490.15" y="539.94" width="456.42" height="469.48"/><path class="cls-14" d="M1946.32,540.19v469H1490.4v-469h455.92m.5-.5H1489.9v470h456.92v-470Z"/><rect class="cls-13" x="786.56" y="540.61" width="233.68" height="227.17"/><path class="cls-14" d="M1020,540.86V767.53H786.81V540.86H1020m.5-.5H786.31V768h234.18V540.36Z"/><rect class="cls-13" x="1255.97" y="540.61" width="233.68" height="227.17"/><path class="cls-14" d="M1489.4,540.86V767.53H1256.22V540.86H1489.4m.5-.5H1255.72V768H1489.9V540.36Z"/><rect class="cls-13" x="786.56" y="1014.85" width="233.68" height="227.17"/><path class="cls-14" d="M1020,1015.1v226.67H786.81V1015.1H1020m.5-.5H786.31v227.67h234.18V1014.6Z"/><rect class="cls-13" x="1255.97" y="1014.85" width="233.68" height="227.17"/><path class="cls-14" d="M1489.4,1015.1v226.67H1256.22V1015.1H1489.4m.5-.5H1255.72v227.67H1489.9V1014.6Z"/><rect class="cls-13" x="1373.63" y="1588.78" width="233.68" height="227.17"/><path class="cls-14" d="M1607.06,1589v226.68H1373.88V1589h233.18m.5-.5H1373.38v227.68h234.18V1588.53Z"/><rect class="cls-13" x="786.56" y="1473.29" width="233.68" height="227.17"/><path class="cls-14" d="M1020,1473.54v226.67H786.81V1473.54H1020m.5-.5H786.31v227.67h234.18V1473Z"/><rect class="cls-13" x="1490.72" y="1009.92" width="227.17" height="233.68"/><path class="cls-14" d="M1717.64,1010.17v233.18H1491V1010.17h226.67m.5-.5H1490.47v234.18h227.67V1009.67Z"/><rect class="cls-13" x="195.77" y="426.1" width="233.68" height="227.17"/><path class="cls-14" d="M429.2,426.35V653H196V426.35H429.2m.5-.5H195.52V653.53H429.7V425.85Z"/><g class="cls-15"><rect class="cls-13" x="114.07" y="347.33" width="162.91" height="158.38"/><path class="cls-14" d="M276.73,347.58V505.46H114.32V347.58H276.73m.5-.5H113.82V506H277.23V347.08Z"/></g><g class="cls-16"><rect class="cls-13" x="140.95" y="600.47" width="109.15" height="106.11"/><path class="cls-14" d="M249.85,600.72V706.33H141.2V600.72H249.85m.5-.5H140.7V706.83H250.35V600.22Z"/></g><polygon class="cls-17" points="330.87 1245.53 329.28 541.37 1020.49 540.36 1021.3 760.73 786.31 768.03 785.74 84.44 1489.9 84.85 1489.9 768.03 1255.72 768.03 1255.72 541.37 1946.82 539.69 1946.82 1243.85 1255.72 1242.27 1255.72 1014.6 1489.9 1014.6 1490.47 1700.79 786.31 1702.37 786.21 1011.35 1020.49 1014.6 1020.49 1242.27 330.87 1245.53"/><polyline class="cls-18" points="642.81 920.66 932.08 920.66 985.05 843.98 1058.74 933.66 1152.6 730.11 1206.37 974.37 1252.84 808.08 1318.46 921.93 1562.27 921.93 1604.3 821.53 1648.34 988.16 1710.5 871.9 1737.85 945.08 2188.28 940.64"/><g class="cls-16"><rect class="cls-13" x="848.82" y="366.48" width="109.15" height="106.1"/><path class="cls-14" d="M957.73,366.73v105.6H849.07V366.73H957.73m.5-.5H848.57v106.6H958.23V366.23Z"/></g></g></svg>